<?xml version="1.0" encoding="UTF-8"?>
<svg width="11px" height="14px" viewBox="0 0 11 14" version="1.1" xmlns="http://www.w3.org/2000/svg" xmlns:xlink="http://www.w3.org/1999/xlink">
    <!-- Generator: Sketch 47.1 (45422) - http://www.bohemiancoding.com/sketch -->
    <title>clipboard</title>
    <desc>Created with Sketch.</desc>
    <defs></defs>
    <g id="Page-1" stroke="none" stroke-width="1" fill="none" fill-rule="evenodd" opacity="0.699999988">
        <g id="tracks-report" transform="translate(-705.000000, -772.000000)" fill="#0069FF">
            <g id="Group" transform="translate(91.000000, 655.000000)">
                <g id="Tabs-Copy">
                    <g id="item-copy" transform="translate(0.000000, 89.000000)">
                        <g id="clipboard" transform="translate(614.000000, 28.000000)">
                            <path d="M8.25,7 L2.75,7 C2.53275,7 2.35714286,6.8044375 2.35714286,6.5625 C2.35714286,6.321 2.53275,6.125 2.75,6.125 L8.25,6.125 C8.46725,6.125 8.64285714,6.321 8.64285714,6.5625 C8.64285714,6.8044375 8.46725,7 8.25,7 L8.25,7 Z M8.25,9.1875 L2.75,9.1875 C2.53275,9.1875 2.35714286,8.9919375 2.35714286,8.75 C2.35714286,8.5085 2.53275,8.3125 2.75,8.3125 L8.25,8.3125 C8.46725,8.3125 8.64285714,8.5085 8.64285714,8.75 C8.64285714,8.9919375 8.46725,9.1875 8.25,9.1875 L8.25,9.1875 Z M8.25,11.375 L2.75,11.375 C2.53275,11.375 2.35714286,11.1794375 2.35714286,10.9375 C2.35714286,10.696 2.53275,10.5 2.75,10.5 L8.25,10.5 C8.46725,10.5 8.64285714,10.696 8.64285714,10.9375 C8.64285714,11.1794375 8.46725,11.375 8.25,11.375 L8.25,11.375 Z M3.53571429,1.75 L4.40903571,1.75 C4.40903571,1.267 4.89735714,0.875 5.5,0.875 C6.10264286,0.875 6.59096429,1.267 6.59096429,1.75 L7.46428571,1.75 L7.46428571,3.5 L3.53571429,3.5 L3.53571429,1.75 L3.53571429,1.75 Z M9.42857143,1.75 L8.25,1.75 L8.25,0.875 L7.19203571,0.875 C6.85142857,0.354375 6.22521429,0 5.5,0 C4.77478571,0 4.14857143,0.354375 3.80796429,0.875 L2.75,0.875 L2.75,1.75 L1.57142857,1.75 C0.703607143,1.75 0,2.5335625 0,3.5 L0,12.25 C0,13.2164375 0.703607143,14 1.57142857,14 L9.42857143,14 C10.2963929,14 11,13.2164375 11,12.25 L11,3.5 C11,2.5335625 10.2963929,1.75 9.42857143,1.75 L9.42857143,1.75 Z" id="Shape"></path>
                        </g>
                    </g>
                </g>
            </g>
        </g>
    </g>
</svg>