<?xml version="1.0" encoding="UTF-8"?>
<svg xmlns="http://www.w3.org/2000/svg" xmlns:xlink="http://www.w3.org/1999/xlink" width="120px" height="120px" viewBox="0 0 120 120" version="1.1">
    
    <title>avatar-default</title>
    <desc>Created with Sketch.</desc>
    <defs>
        <rect id="path-1" x="0" y="0" width="120" height="120" rx="60"/>
    </defs>
    <g id="mockups" stroke="none" stroke-width="1" fill="none" fill-rule="evenodd">
        <g id="new-driver" transform="translate(-443.000000, -176.000000)">
            <g id="New-User-Modal" transform="translate(418.000000, 120.000000)">
                <g id="Group-2">
                    <g id="avatar-default" transform="translate(25.000000, 56.000000)">
                        <g id="bg">
                            <use fill="#D4D4D4" fill-rule="evenodd" xlink:href="#path-1"/>
                            <rect stroke="#D4D4D4" stroke-width="1" x="0.5" y="0.5" width="119" height="119" rx="59.5"/>
                        </g>
                        <path d="M95,60 C95,40.7016364 79.2983636,25 60,25 C40.7016364,25 25,40.7016364 25,60 C25,70.1932727 29.3832727,79.3810909 36.3603636,85.7829091 L36.3272727,85.8121818 L37.4625455,86.7692727 C37.5363636,86.8316364 37.6165455,86.8825455 37.6903636,86.9436364 C38.2936364,87.4438182 38.9185455,87.9185455 39.5549091,88.378 C39.7610909,88.5269091 39.9672727,88.6758182 40.1772727,88.8209091 C40.8569091,89.2892727 41.5543636,89.7334545 42.2670909,90.1547273 C42.4223636,90.2463636 42.5789091,90.3354545 42.7354545,90.4245455 C43.5156364,90.8687273 44.3123636,91.2874545 45.1281818,91.6718182 C45.188,91.6998182 45.2490909,91.7252727 45.3089091,91.7532727 C47.9676364,92.9890909 50.8058182,93.8965455 53.7738182,94.4323636 C53.8514545,94.4463636 53.9290909,94.4603636 54.008,94.4743636 C54.9294545,94.6334545 55.8610909,94.7607273 56.8041818,94.846 C56.9187273,94.8561818 57.0332727,94.8625455 57.1490909,94.8727273 C58.0883636,94.9503636 59.0378182,95 60,95 C60.9532727,95 61.8938182,94.9503636 62.828,94.8752727 C62.9463636,94.8650909 63.0647273,94.8587273 63.1830909,94.8485455 C64.1185455,94.7632727 65.0425455,94.6398182 65.9550909,94.4832727 C66.034,94.4692727 66.1141818,94.4552727 66.1930909,94.44 C69.1165455,93.9156364 71.914,93.0285455 74.5383636,91.8245455 C74.6350909,91.78 74.7330909,91.738 74.8298182,91.6921818 C75.6150909,91.3230909 76.3825455,90.9247273 77.1347273,90.5009091 C77.3218182,90.3952727 77.5076364,90.2883636 77.6934545,90.1789091 C78.3781818,89.7754545 79.0514545,89.3541818 79.7056364,88.9061818 C79.9410909,88.7458182 80.1714545,88.5765455 80.4043636,88.4085455 C80.9630909,88.0063636 81.5116364,87.5914545 82.0449091,87.1574545 C82.1632727,87.062 82.2905455,86.9792727 82.4063636,86.8812727 L83.5709091,85.9089091 L83.5365455,85.8796364 C90.5747273,79.4752727 95,70.2454545 95,60 Z M27.5454545,60 C27.5454545,42.1041818 42.1041818,27.5454545 60,27.5454545 C77.8958182,27.5454545 92.4545455,42.1041818 92.4545455,60 C92.4545455,69.6434545 88.2227273,78.3132727 81.5230909,84.262 C81.1489091,84.0036364 80.7721818,83.772 80.3865455,83.5785455 L69.6103636,78.1910909 C68.6430909,77.7074545 68.0423636,76.7350909 68.0423636,75.6545455 L68.0423636,71.8910909 C68.2918182,71.5830909 68.5552727,71.2343636 68.8276364,70.8512727 C70.2225455,68.8810909 71.3412727,66.6894545 72.1570909,64.3310909 C73.7696364,63.5649091 74.8107273,61.9587273 74.8107273,60.1450909 L74.8107273,55.6332727 C74.8107273,54.5298182 74.406,53.4594545 73.6818182,52.6181818 L73.6818182,46.6783636 C73.748,46.0165455 73.9821818,42.29 71.2852727,39.2150909 C68.9396364,36.5372727 65.1430909,35.1818182 60,35.1818182 C54.8569091,35.1818182 51.0603636,36.5372727 48.7147273,39.2138182 C46.0178182,42.2887273 46.252,46.0178182 46.3181818,46.6770909 L46.3181818,52.6169091 C45.5952727,53.4581818 45.1892727,54.5285455 45.1892727,55.632 L45.1892727,60.1438182 C45.1892727,61.5450909 45.818,62.8521818 46.8947273,63.7341818 C47.9256364,67.7725455 50.0472727,70.8296364 50.8312727,71.8656364 L50.8312727,75.5489091 C50.8312727,76.5874545 50.2649091,77.542 49.3523636,78.0409091 L39.2889091,83.5301818 C38.9681818,83.7045455 38.65,83.9081818 38.3318182,84.136 C31.7149091,78.1898182 27.5454545,69.5734545 27.5454545,60 Z" id="Shape" fill="#444444" fill-rule="nonzero"/>
                    </g>
                </g>
            </g>
        </g>
    </g>
</svg>
