<?xml version="1.0" encoding="UTF-8"?>
<svg width="120px" height="120px" viewBox="0 0 120 120" version="1.1" xmlns="http://www.w3.org/2000/svg" xmlns:xlink="http://www.w3.org/1999/xlink">
    <!-- Generator: Sketch 46.2 (44496) - http://www.bohemiancoding.com/sketch -->
    <title>cellphones-default</title>
    <desc>Created with Sketch.</desc>
    <defs>
        <rect id="path-1" x="0" y="0" width="120" height="120" rx="60"></rect>
    </defs>
    <g id="mockups" stroke="none" stroke-width="1" fill="none" fill-rule="evenodd">
        <g id="add-vehicle-|-Step-1" transform="translate(-443.000000, -184.000000)">
            <g id="New-User-Modal" transform="translate(418.000000, 119.000000)">
                <g id="Group-2">
                    <g id="cellphones-default" transform="translate(25.000000, 65.000000)">
                        <g id="bg">
                            <use fill="#D4D4D4" fill-rule="evenodd" xlink:href="#path-1"></use>
                            <rect stroke="#D4D4D4" stroke-width="1" x="0.5" y="0.5" width="119" height="119" rx="59.5"></rect>
                        </g>
                        <g id="l0-copy" transform="translate(43.000000, 30.000000)" fill="#444444">
                            <g id="Capa_1">
                                <path d="M31.1422414,0 L2.7112069,0 C1.41627586,0 0.36637931,1.0746 0.36637931,2.4 L0.36637931,57.45 C0.36637931,58.7754 1.41627586,59.85 2.7112069,59.85 L31.1422414,59.85 C32.4371724,59.85 33.487069,58.7754 33.487069,57.45 L33.487069,2.4 C33.487069,1.0746 32.4371724,0 31.1422414,0 L31.1422414,0 Z M13.7447931,5.007 L19.7217586,5.007 C19.9462759,5.007 20.1262414,5.193 20.1262414,5.4216 C20.1262414,5.6502 19.9445172,5.8362 19.7217586,5.8362 L13.7447931,5.8362 C13.5214483,5.8362 13.3397241,5.6502 13.3397241,5.4216 C13.3397241,5.193 13.5214483,5.007 13.7447931,5.007 L13.7447931,5.007 Z M16.7332759,54.8424 C15.9870345,54.8424 15.382069,54.2232 15.382069,53.4594 C15.382069,52.6956 15.9864483,52.0758 16.7332759,52.0758 C17.4795172,52.0758 18.0844828,52.695 18.0844828,53.4594 C18.0844828,54.2232 17.4795172,54.8424 16.7332759,54.8424 L16.7332759,54.8424 Z M30.8016552,50.3496 L3.0517931,50.3496 L3.0517931,9.5004 L30.8016552,9.5004 L30.8016552,50.3496 L30.8016552,50.3496 Z" id="Shape"></path>
                            </g>
                        </g>
                    </g>
                </g>
            </g>
        </g>
    </g>
</svg>