<?xml version="1.0" encoding="UTF-8"?>
<svg width="26px" height="26px" viewBox="0 0 26 26" version="1.1" xmlns="http://www.w3.org/2000/svg" xmlns:xlink="http://www.w3.org/1999/xlink">
    <!-- Generator: Sketch 47.1 (45422) - http://www.bohemiancoding.com/sketch -->
    <title>image-placeholder copy 9</title>
    <desc>Created with Sketch.</desc>
    <defs></defs>
    <g id="Page-1" stroke="none" stroke-width="1" fill="none" fill-rule="evenodd">
        <g id="check-ins-report" transform="translate(-1005.000000, -1165.000000)">
            <g id="table" transform="translate(91.000000, 709.000000)">
                <g id="table-row-copy-9" transform="translate(1.000000, 446.000000)">
                    <g id="image-placeholder-copy-9" transform="translate(913.000000, 10.000000)">
                        <rect id="Rectangle-4" fill-opacity="0.1" fill="#000000" x="0" y="0" width="26" height="26" rx="13"></rect>
                        <g id="camera" transform="translate(5.000000, 6.000000)" fill-rule="nonzero" fill="#0069FF">
                            <path d="M8,5.65384613 C8.66110939,5.65384613 9.22639146,5.89082576 9.69583627,6.36478349 C10.1652811,6.83874173 10.4000035,7.40945362 10.4000035,8.0769242 C10.4000035,8.74438975 10.1652811,9.31510667 9.69583627,9.78906491 C9.22639096,10.2630231 8.66111436,10.5000023 8,10.5000023 C7.33889061,10.5000023 6.77360854,10.2630226 6.30416373,9.78906491 C5.83471842,9.31510667 5.59999652,8.74439478 5.59999652,8.0769242 C5.59999652,7.40945865 5.83471892,6.83874173 6.30416373,6.36478349 C6.77360854,5.89082525 7.33888564,5.65384613 8,5.65384613 Z M13.8666663,2.1538484 C14.455558,2.1538484 14.9583341,2.36418458 15.3749995,2.78485794 C15.7916663,3.20553131 16,3.71314426 16,4.30769277 L16,11.8461556 C16,12.4407092 15.7916663,12.9483191 15.3749995,13.3689905 C14.9583321,13.7896638 14.4555531,14 13.8666663,14 L2.13333367,14 C1.54444694,14 1.04166591,13.7896638 0.625000544,13.3689905 C0.208333681,12.9483171 0,12.4407041 0,11.8461556 L0,4.30769277 C0,3.71313923 0.208333681,3.2055293 0.625000544,2.78485794 C1.04166791,2.36418458 1.54444694,2.1538484 2.13333367,2.1538484 L4.00000249,2.1538484 L4.42500316,1.00961527 C4.53055855,0.734775482 4.72361442,0.497798877 5.00416827,0.298677919 C5.28472412,0.0995594738 5.57222297,0 5.86666882,0 L10.1333411,0 C10.427786,0 10.7152838,0.0995594738 10.9958417,0.298677919 C11.2763975,0.497796866 11.4694534,0.734775985 11.5750068,1.00961527 L12.0000075,2.1538484 L13.8666663,2.1538484 Z M8,11.8461506 C9.0277779,11.8461506 9.90694905,11.4773605 10.6375035,10.7397807 C11.3680579,10.0022024 11.7333376,9.11457853 11.7333376,8.07691917 C11.7333376,7.03925981 11.3680594,6.15164099 10.6375035,5.41405768 C9.90694905,4.6764794 9.0277779,4.30768775 8,4.30768775 C6.9722221,4.30768775 6.09305095,4.67647789 5.36249651,5.41405768 C4.63194206,6.15163596 4.26666235,7.03925981 4.26666235,8.07691917 C4.26666235,9.11457853 4.63194057,10.0021974 5.36249651,10.7397807 C6.09305095,11.4773589 6.9722221,11.8461506 8,11.8461506 Z" id="Shape"></path>
                        </g>
                    </g>
                </g>
            </g>
        </g>
    </g>
</svg>