<?xml version="1.0" encoding="UTF-8"?>
<svg width="120px" height="120px" viewBox="0 0 120 120" version="1.1" xmlns="http://www.w3.org/2000/svg" xmlns:xlink="http://www.w3.org/1999/xlink">
    <!-- Generator: Sketch 46.2 (44496) - http://www.bohemiancoding.com/sketch -->
    <title>ios-avatar</title>
    <desc>Created with Sketch.</desc>
    <defs>
        <rect id="path-1" x="0" y="0" width="120" height="120" rx="60"></rect>
    </defs>
    <g id="mockups" stroke="none" stroke-width="1" fill="none" fill-rule="evenodd">
        <g id="new-phone-profile" transform="translate(-448.000000, -365.000000)">
            <g id="modal" transform="translate(418.000000, 114.000000)">
                <g id="ios-avatar" transform="translate(30.000000, 251.000000)">
                    <g id="bg">
                        <use fill="#D4D4D4" fill-rule="evenodd" xlink:href="#path-1"></use>
                        <rect stroke="#D4D4D4" stroke-width="1" x="0.5" y="0.5" width="119" height="119" rx="59.5"></rect>
                    </g>
                    <g id="apple" transform="translate(31.000000, 25.000000)" fill-rule="nonzero" fill="#444444">
                        <path d="M57.5075425,50.981765 C56.43418,54.4062992 54.7415689,57.8308334 52.4297066,61.2553676 C48.879352,66.6250345 45.3427577,69.3098679 41.8198988,69.3098679 C40.4713125,69.3098679 38.544773,68.8715288 36.0402432,67.9948482 C33.6733377,67.1181675 31.5954014,66.6798259 29.8064762,66.6798259 C28.1276228,66.6798259 26.1735604,67.1318648 23.9442594,68.0359424 C21.7149657,68.9674145 19.8985128,69.4331506 18.4948733,69.4331506 C14.3115,69.4331506 10.1694073,65.8853411 6.0686199,58.7896976 C2.02284864,51.6392651 -2.46598639e-05,44.749105 -2.46598639e-05,38.1192172 C-2.46598639e-05,31.872877 1.55497704,26.7497607 4.66498044,22.7499174 C7.77498384,18.804863 11.6831284,16.8323358 16.3894141,16.8323358 C18.3710117,16.8323358 20.8067109,17.2432804 23.696551,18.0651672 C26.5588461,18.8870539 28.4578776,19.2979985 29.3936454,19.2979985 C30.6321427,19.2979985 32.5999702,18.8322624 35.2971429,17.9007903 C38.1043971,16.9693157 40.485085,16.5035797 42.4391573,16.5035797 C45.7142832,16.5035797 48.6454039,17.39396 51.2324949,19.1747158 C52.6636474,20.1609819 54.09479,21.5307931 55.5259498,23.2841618 C53.3516995,25.1197115 51.7829277,26.7360905 50.8196641,28.1333085 C49.0307217,30.7085639 48.1362517,33.5440671 48.1362517,36.6398427 C48.1362517,40.0369823 49.0857674,43.0916662 50.9847866,45.8038941 C52.8838156,48.516122 55.0580782,50.2420987 57.5075425,50.9817994 L57.5075425,50.981765 Z M41.9850459,2.77798948 C41.9850459,4.44916236 41.5859729,6.31210169 40.7878317,8.36683694 C39.9621652,10.4215575 38.6823849,12.3118913 36.9484882,14.0378679 C35.46229,15.517267 33.9760868,16.5035207 32.4898861,16.996671 C31.4715669,17.2980302 30.0404145,17.5308982 28.1964312,17.695275 C28.2789974,13.6132236 29.3523623,10.0928086 31.4165162,7.13400561 C33.4531571,4.20259708 36.8934227,2.17528089 41.7373351,1.0520325 C41.764858,1.13422338 41.799261,1.28490298 41.840544,1.5040713 C41.8818271,1.72324208 41.9162301,1.87392168 41.943753,1.95611011 C41.943753,2.0656955 41.9506331,2.20267539 41.9643933,2.3670547 C41.9781535,2.53143156 41.9850361,2.66841391 41.9850361,2.77799684 L41.9850459,2.77798948 Z" id="Shape"></path>
                    </g>
                </g>
            </g>
        </g>
    </g>
</svg>