<?xml version="1.0" encoding="UTF-8"?>
<svg width="30px" height="30px" viewBox="0 0 30 30" version="1.1" xmlns="http://www.w3.org/2000/svg" xmlns:xlink="http://www.w3.org/1999/xlink">
    <!-- Generator: Sketch 45 (43475) - http://www.bohemiancoding.com/sketch -->
    <title>key</title>
    <desc>Created with Sketch.</desc>
    <defs></defs>
    <g id="mockups" stroke="none" stroke-width="1" fill="none" fill-rule="evenodd">
        <g id="key" fill-rule="nonzero" fill="#9B9B9B">
            <path d="M27.4480879,2.54782418 C24.050967,-0.849296703 18.5431648,-0.849296703 15.146044,2.54782418 C12.4281099,5.26575824 11.8851429,9.33468132 13.5162857,12.5928791 L0.0120659341,26.0974286 L0.00402197802,29.9914286 L7.55558242,30 L7.55558242,26.3271429 L11.2284396,26.3271429 L11.2284396,22.6542857 L14.9012967,22.6542857 L14.9012967,18.9814286 L17.403033,16.4796923 C20.6612308,18.1109011 24.7301538,17.5678681 27.4480879,14.8499341 C30.8452747,11.4528132 30.8452747,5.94494505 27.4480879,2.54782418 Z M24.6827473,9.03303297 C23.6555604,10.0602198 21.9901319,10.0602198 20.9628791,9.03303297 C19.9356264,8.00584615 19.9356923,6.34041758 20.9628791,5.31316484 C21.9900659,4.28591209 23.6554945,4.28597802 24.6827473,5.31316484 C25.71,6.34041758 25.71,8.00584615 24.6827473,9.03303297 Z" id="Shape"></path>
        </g>
    </g>
</svg>