<?xml version="1.0" encoding="UTF-8"?>
<svg width="120px" height="120px" viewBox="0 0 120 120" version="1.1" xmlns="http://www.w3.org/2000/svg" xmlns:xlink="http://www.w3.org/1999/xlink">
    <!-- Generator: Sketch 46.2 (44496) - http://www.bohemiancoding.com/sketch -->
    <title>vehicle-photo-placeholder</title>
    <desc>Created with Sketch.</desc>
    <defs>
        <rect id="path-1" x="0" y="0" width="120" height="120" rx="60"></rect>
    </defs>
    <g id="mockups" stroke="none" stroke-width="1" fill="none" fill-rule="evenodd">
        <g id="add-vehicle-|-Step-1" transform="translate(-443.000000, -175.000000)">
            <g id="New-User-Modal" transform="translate(418.000000, 119.000000)">
                <g id="Group-2">
                    <g id="vehicle-photo-placeholder" transform="translate(25.000000, 56.000000)">
                        <g id="bg">
                            <use fill="#D4D4D4" fill-rule="evenodd" xlink:href="#path-1"></use>
                            <rect stroke="#D4D4D4" stroke-width="1" x="0.5" y="0.5" width="119" height="119" rx="59.5"></rect>
                        </g>
                        <g id="ic_directions_car" transform="translate(30.000000, 30.000000)">
                            <g id="Icon-24px">
                                <path d="M47.8,12.525 C47.3,11.05 45.9,10 44.25,10 L16.75,10 C15.1,10 13.725,11.05 13.2,12.525 L8,27.5 L8,47.5 C8,48.875 9.125,50 10.5,50 L13,50 C14.375,50 15.5,48.875 15.5,47.5 L15.5,45 L45.5,45 L45.5,47.5 C45.5,48.875 46.625,50 48,50 L50.5,50 C51.875,50 53,48.875 53,47.5 L53,27.5 L47.8,12.525 L47.8,12.525 Z M16.75,37.5 C14.675,37.5 13,35.825 13,33.75 C13,31.675 14.675,30 16.75,30 C18.825,30 20.5,31.675 20.5,33.75 C20.5,35.825 18.825,37.5 16.75,37.5 L16.75,37.5 Z M44.25,37.5 C42.175,37.5 40.5,35.825 40.5,33.75 C40.5,31.675 42.175,30 44.25,30 C46.325,30 48,31.675 48,33.75 C48,35.825 46.325,37.5 44.25,37.5 L44.25,37.5 Z M13,25 L16.75,13.75 L44.25,13.75 L48,25 L13,25 L13,25 Z" id="Shape" fill="#444444"></path>
                                <polygon id="Shape" points="0 0 60 0 60 60 0 60"></polygon>
                            </g>
                        </g>
                    </g>
                </g>
            </g>
        </g>
    </g>
</svg>