<?xml version="1.0" encoding="UTF-8"?>
<svg width="46px" height="46px" viewBox="0 0 46 46" version="1.1" xmlns="http://www.w3.org/2000/svg" xmlns:xlink="http://www.w3.org/1999/xlink">
    <!-- Generator: Sketch 46.2 (44496) - http://www.bohemiancoding.com/sketch -->
    <title>notification-error-icon</title>
    <desc>Created with Sketch.</desc>
    <defs>
        <filter x="-5.8%" y="-25.0%" width="111.6%" height="170.0%" filterUnits="objectBoundingBox" id="filter-1">
            <feOffset dx="0" dy="5" in="SourceAlpha" result="shadowOffsetOuter1"></feOffset>
            <feGaussianBlur stdDeviation="5" in="shadowOffsetOuter1" result="shadowBlurOuter1"></feGaussianBlur>
            <feColorMatrix values="0 0 0 0 0   0 0 0 0 0   0 0 0 0 0  0 0 0 0.2 0" type="matrix" in="shadowBlurOuter1" result="shadowMatrixOuter1"></feColorMatrix>
            <feMerge>
                <feMergeNode in="shadowMatrixOuter1"></feMergeNode>
                <feMergeNode in="SourceGraphic"></feMergeNode>
            </feMerge>
        </filter>
    </defs>
    <g id="mockups" stroke="none" stroke-width="1" fill="none" fill-rule="evenodd">
        <g id="user-module" transform="translate(-1115.000000, -164.000000)">
            <g id="error" filter="url(#filter-1)" transform="translate(1108.000000, 157.000000)">
                <g id="notification-error-icon" transform="translate(15.000000, 10.000000)">
                    <polygon id="Shape" points="0 0 30 0 30 30 0 30"></polygon>
                    <path d="M15,2 C7.824,2 2,7.8175 2,15 C2,22.1825 7.824,28 15,28 C22.176,28 28,22.1825 28,15 C28,7.8175 22.176,2 15,2 Z M16.3,21.5 L13.7,21.5 L13.7,18.9 L16.3,18.9 L16.3,21.5 Z M16.3,16.3 L13.7,16.3 L13.7,8.5 L16.3,8.5 L16.3,16.3 Z" id="Shape" fill="#FF5252" fill-rule="nonzero"></path>
                </g>
            </g>
        </g>
    </g>
</svg>